<svg width="214" height="97" viewBox="0 0 214 97" fill="none" xmlns="http://www.w3.org/2000/svg">
<mask id="path-1-outside-1_3_22" maskUnits="userSpaceOnUse" x="0" y="0" width="214" height="97" fill="black">
<rect fill="white" width="214" height="97"/>
<path d="M31 13H26.7727C26.5227 11.7841 26.0852 10.7159 25.4602 9.79545C24.8466 8.875 24.0966 8.10227 23.2102 7.47727C22.3352 6.84091 21.3636 6.36364 20.2955 6.04545C19.2273 5.72727 18.1136 5.56818 16.9545 5.56818C14.8409 5.56818 12.9261 6.10227 11.2102 7.17045C9.50568 8.23864 8.14773 9.8125 7.13636 11.892C6.13636 13.9716 5.63636 16.5227 5.63636 19.5455C5.63636 22.5682 6.13636 25.1193 7.13636 27.1989C8.14773 29.2784 9.50568 30.8523 11.2102 31.9205C12.9261 32.9886 14.8409 33.5227 16.9545 33.5227C18.1136 33.5227 19.2273 33.3636 20.2955 33.0455C21.3636 32.7273 22.3352 32.2557 23.2102 31.6307C24.0966 30.9943 24.8466 30.2159 25.4602 29.2955C26.0852 28.3636 26.5227 27.2955 26.7727 26.0909H31C30.6818 27.875 30.1023 29.4716 29.2614 30.8807C28.4205 32.2898 27.375 33.4886 26.125 34.4773C24.875 35.4545 23.4716 36.1989 21.9148 36.7102C20.3693 37.2216 18.7159 37.4773 16.9545 37.4773C13.9773 37.4773 11.3295 36.75 9.01136 35.2955C6.69318 33.8409 4.86932 31.7727 3.53977 29.0909C2.21023 26.4091 1.54545 23.2273 1.54545 19.5455C1.54545 15.8636 2.21023 12.6818 3.53977 10C4.86932 7.31818 6.69318 5.25 9.01136 3.79545C11.3295 2.34091 13.9773 1.61364 16.9545 1.61364C18.7159 1.61364 20.3693 1.86932 21.9148 2.38068C23.4716 2.89205 24.875 3.64205 26.125 4.63068C27.375 5.60795 28.4205 6.80114 29.2614 8.21023C30.1023 9.60795 30.6818 11.2045 31 13Z"/>
<path d="M57.0419 37.5455C54.6782 37.5455 52.6044 36.983 50.8203 35.858C49.0476 34.733 47.6612 33.1591 46.6612 31.1364C45.6726 29.1136 45.1782 26.75 45.1782 24.0455C45.1782 21.3182 45.6726 18.9375 46.6612 16.9034C47.6612 14.8693 49.0476 13.2898 50.8203 12.1648C52.6044 11.0398 54.6782 10.4773 57.0419 10.4773C59.4055 10.4773 61.4737 11.0398 63.2464 12.1648C65.0305 13.2898 66.4169 14.8693 67.4055 16.9034C68.4055 18.9375 68.9055 21.3182 68.9055 24.0455C68.9055 26.75 68.4055 29.1136 67.4055 31.1364C66.4169 33.1591 65.0305 34.733 63.2464 35.858C61.4737 36.983 59.4055 37.5455 57.0419 37.5455ZM57.0419 33.9318C58.8373 33.9318 60.3146 33.4716 61.4737 32.5511C62.6328 31.6307 63.4907 30.4205 64.0476 28.9205C64.6044 27.4205 64.8828 25.7955 64.8828 24.0455C64.8828 22.2955 64.6044 20.6648 64.0476 19.1534C63.4907 17.642 62.6328 16.4205 61.4737 15.4886C60.3146 14.5568 58.8373 14.0909 57.0419 14.0909C55.2464 14.0909 53.7691 14.5568 52.6101 15.4886C51.451 16.4205 50.593 17.642 50.0362 19.1534C49.4794 20.6648 49.201 22.2955 49.201 24.0455C49.201 25.7955 49.4794 27.4205 50.0362 28.9205C50.593 30.4205 51.451 31.6307 52.6101 32.5511C53.7691 33.4716 55.2464 33.9318 57.0419 33.9318Z"/>
<path d="M94.0525 37.5455C91.8707 37.5455 89.9445 36.9943 88.2741 35.892C86.6036 34.7784 85.2968 33.2102 84.3536 31.1875C83.4104 29.1534 82.9389 26.75 82.9389 23.9773C82.9389 21.2273 83.4104 18.8409 84.3536 16.8182C85.2968 14.7955 86.6093 13.233 88.2911 12.1307C89.9729 11.0284 91.9161 10.4773 94.1207 10.4773C95.8252 10.4773 97.1718 10.7614 98.1605 11.3295C99.1605 11.8864 99.9218 12.5227 100.445 13.2386C100.979 13.9432 101.393 14.5227 101.689 14.9773H102.03V2.09091H106.052V37H102.166V32.9773H101.689C101.393 33.4545 100.973 34.0568 100.427 34.7841C99.882 35.5 99.1036 36.142 98.0923 36.7102C97.0809 37.267 95.7343 37.5455 94.0525 37.5455ZM94.598 33.9318C96.2116 33.9318 97.5752 33.5114 98.6889 32.6705C99.8025 31.8182 100.649 30.642 101.229 29.142C101.808 27.6307 102.098 25.8864 102.098 23.9091C102.098 21.9545 101.814 20.2443 101.246 18.7784C100.677 17.3011 99.8366 16.1534 98.723 15.3352C97.6093 14.5057 96.2343 14.0909 94.598 14.0909C92.8934 14.0909 91.4729 14.5284 90.3366 15.4034C89.2116 16.267 88.365 17.4432 87.7968 18.9318C87.24 20.4091 86.9616 22.0682 86.9616 23.9091C86.9616 25.7727 87.2457 27.4659 87.8139 28.9886C88.3934 30.5 89.2457 31.7045 90.3707 32.6023C91.507 33.4886 92.9161 33.9318 94.598 33.9318Z"/>
<path d="M123.099 37V10.8182H127.121V37H123.099ZM125.144 6.45455C124.36 6.45455 123.684 6.1875 123.116 5.65341C122.559 5.11932 122.28 4.47727 122.28 3.72727C122.28 2.97727 122.559 2.33523 123.116 1.80114C123.684 1.26705 124.36 1 125.144 1C125.928 1 126.599 1.26705 127.155 1.80114C127.724 2.33523 128.008 2.97727 128.008 3.72727C128.008 4.47727 127.724 5.11932 127.155 5.65341C126.599 6.1875 125.928 6.45455 125.144 6.45455Z"/>
<path d="M147.632 21.25V37H143.609V10.8182H147.496V14.9091H147.837C148.45 13.5795 149.382 12.5114 150.632 11.7045C151.882 10.8864 153.496 10.4773 155.473 10.4773C157.246 10.4773 158.797 10.8409 160.126 11.5682C161.456 12.2841 162.49 13.375 163.229 14.8409C163.967 16.2955 164.337 18.1364 164.337 20.3636V37H160.314V20.6364C160.314 18.5795 159.78 16.9773 158.712 15.8295C157.643 14.6705 156.177 14.0909 154.314 14.0909C153.03 14.0909 151.882 14.3693 150.871 14.9261C149.871 15.483 149.081 16.2955 148.501 17.3636C147.922 18.4318 147.632 19.7273 147.632 21.25Z"/>
<path d="M191.376 47.3636C189.432 47.3636 187.762 47.1136 186.364 46.6136C184.966 46.125 183.802 45.4773 182.87 44.6705C181.949 43.875 181.216 43.0227 180.671 42.1136L183.876 39.8636C184.239 40.3409 184.699 40.8864 185.256 41.5C185.813 42.125 186.574 42.6648 187.54 43.1193C188.518 43.5852 189.796 43.8182 191.376 43.8182C193.489 43.8182 195.234 43.3068 196.609 42.2841C197.984 41.2614 198.671 39.6591 198.671 37.4773V32.1591H198.33C198.035 32.6364 197.614 33.2273 197.069 33.9318C196.535 34.625 195.762 35.2443 194.751 35.7898C193.751 36.3239 192.398 36.5909 190.694 36.5909C188.58 36.5909 186.682 36.0909 185.001 35.0909C183.33 34.0909 182.006 32.6364 181.029 30.7273C180.063 28.8182 179.58 26.5 179.58 23.7727C179.58 21.0909 180.052 18.7557 180.995 16.767C181.938 14.767 183.251 13.2216 184.932 12.1307C186.614 11.0284 188.557 10.4773 190.762 10.4773C192.466 10.4773 193.819 10.7614 194.819 11.3295C195.83 11.8864 196.603 12.5227 197.137 13.2386C197.682 13.9432 198.103 14.5227 198.398 14.9773H198.807V10.8182H202.694V37.75C202.694 40 202.182 41.8295 201.16 43.2386C200.148 44.6591 198.785 45.6989 197.069 46.358C195.364 47.0284 193.466 47.3636 191.376 47.3636ZM191.239 32.9773C192.853 32.9773 194.216 32.608 195.33 31.8693C196.444 31.1307 197.29 30.0682 197.87 28.6818C198.449 27.2955 198.739 25.6364 198.739 23.7045C198.739 21.8182 198.455 20.1534 197.887 18.7102C197.319 17.267 196.478 16.1364 195.364 15.3182C194.251 14.5 192.876 14.0909 191.239 14.0909C189.535 14.0909 188.114 14.5227 186.978 15.3864C185.853 16.25 185.006 17.4091 184.438 18.8636C183.881 20.3182 183.603 21.9318 183.603 23.7045C183.603 25.5227 183.887 27.1307 184.455 28.5284C185.035 29.9148 185.887 31.0057 187.012 31.8011C188.148 32.5852 189.557 32.9773 191.239 32.9773Z"/>
<path d="M1 63.8409V60.0909H27.1818V63.8409H16.2045V95H11.9773V63.8409H1Z"/>
<path d="M46.4226 95.6136C44.7635 95.6136 43.2578 95.3011 41.9055 94.6761C40.5532 94.0398 39.4794 93.125 38.6839 91.9318C37.8885 90.7273 37.4907 89.2727 37.4907 87.5682C37.4907 86.0682 37.7862 84.8523 38.3771 83.9205C38.968 82.9773 39.7578 82.2386 40.7464 81.7045C41.7351 81.1705 42.826 80.7727 44.0191 80.5114C45.2237 80.2386 46.4339 80.0227 47.6498 79.8636C49.2407 79.6591 50.5305 79.5057 51.5191 79.4034C52.5191 79.2898 53.2464 79.1023 53.701 78.8409C54.1669 78.5795 54.3998 78.125 54.3998 77.4773V77.3409C54.3998 75.6591 53.9396 74.3523 53.0191 73.4205C52.1101 72.4886 50.7294 72.0227 48.8771 72.0227C46.9566 72.0227 45.451 72.4432 44.3601 73.2841C43.2691 74.125 42.5021 75.0227 42.0589 75.9773L38.2407 74.6136C38.9226 73.0227 39.8316 71.7841 40.968 70.8977C42.1157 70 43.3657 69.375 44.718 69.0227C46.0816 68.6591 47.4226 68.4773 48.7407 68.4773C49.5816 68.4773 50.5476 68.5795 51.6385 68.7841C52.7407 68.9773 53.8032 69.3807 54.826 69.9943C55.8601 70.608 56.718 71.5341 57.3998 72.7727C58.0816 74.0114 58.4226 75.6705 58.4226 77.75V95H54.3998V91.4545H54.1953C53.9226 92.0227 53.468 92.6307 52.8316 93.2784C52.1953 93.9261 51.3487 94.4773 50.2919 94.9318C49.2351 95.3864 47.9453 95.6136 46.4226 95.6136ZM47.0362 92C48.6271 92 49.968 91.6875 51.0589 91.0625C52.1612 90.4375 52.9907 89.6307 53.5476 88.642C54.1157 87.6534 54.3998 86.6136 54.3998 85.5227V81.8409C54.2294 82.0455 53.8544 82.233 53.2748 82.4034C52.7066 82.5625 52.0476 82.7045 51.2976 82.8295C50.5589 82.9432 49.8373 83.0455 49.1328 83.1364C48.4396 83.2159 47.8771 83.2841 47.4453 83.3409C46.3998 83.4773 45.4226 83.6989 44.5135 84.0057C43.6157 84.3011 42.8885 84.75 42.3316 85.3523C41.7862 85.9432 41.5135 86.75 41.5135 87.7727C41.5135 89.1705 42.0305 90.2273 43.0646 90.9432C44.1101 91.6477 45.4339 92 47.0362 92Z"/>
<path d="M85.5212 95.5455C83.0667 95.5455 80.9531 94.9659 79.1803 93.8068C77.4076 92.6477 76.044 91.0511 75.0894 89.017C74.1349 86.983 73.6576 84.6591 73.6576 82.0455C73.6576 79.3864 74.1462 77.0398 75.1235 75.0057C76.1122 72.9602 77.4872 71.3636 79.2485 70.2159C81.0212 69.0568 83.0894 68.4773 85.4531 68.4773C87.294 68.4773 88.9531 68.8182 90.4303 69.5C91.9076 70.1818 93.1178 71.1364 94.061 72.3636C95.0042 73.5909 95.5894 75.0227 95.8167 76.6591H91.794C91.4872 75.4659 90.8053 74.4091 89.7485 73.4886C88.7031 72.5568 87.294 72.0909 85.5212 72.0909C83.9531 72.0909 82.5781 72.5 81.3962 73.3182C80.2258 74.125 79.311 75.267 78.6519 76.7443C78.0042 78.2102 77.6803 79.9318 77.6803 81.9091C77.6803 83.9318 77.9985 85.6932 78.6349 87.1932C79.2826 88.6932 80.1917 89.858 81.3622 90.6875C82.544 91.517 83.9303 91.9318 85.5212 91.9318C86.5667 91.9318 87.5156 91.75 88.3678 91.3864C89.2201 91.0227 89.9417 90.5 90.5326 89.8182C91.1235 89.1364 91.544 88.3182 91.794 87.3636H95.8167C95.5894 88.9091 95.0269 90.3011 94.1292 91.5398C93.2428 92.767 92.0667 93.7443 90.6008 94.4716C89.1462 95.1875 87.4531 95.5455 85.5212 95.5455Z"/>
<path d="M122.204 68.8182V72.2273H108.636V68.8182H122.204ZM112.59 62.5455H116.613V87.5C116.613 88.6364 116.778 89.4886 117.107 90.0568C117.448 90.6136 117.88 90.9886 118.403 91.1818C118.937 91.3636 119.499 91.4545 120.09 91.4545C120.533 91.4545 120.897 91.4318 121.181 91.3864C121.465 91.3295 121.692 91.2841 121.863 91.25L122.681 94.8636C122.408 94.9659 122.028 95.0682 121.539 95.1705C121.05 95.2841 120.431 95.3409 119.681 95.3409C118.545 95.3409 117.431 95.0966 116.34 94.608C115.261 94.1193 114.363 93.375 113.647 92.375C112.942 91.375 112.59 90.1136 112.59 88.5909V62.5455Z"/>
<path d="M137.375 95V68.8182H141.398V95H137.375ZM139.42 64.4545C138.636 64.4545 137.96 64.1875 137.392 63.6534C136.835 63.1193 136.557 62.4773 136.557 61.7273C136.557 60.9773 136.835 60.3352 137.392 59.8011C137.96 59.267 138.636 59 139.42 59C140.204 59 140.875 59.267 141.432 59.8011C142 60.3352 142.284 60.9773 142.284 61.7273C142.284 62.4773 142 63.1193 141.432 63.6534C140.875 64.1875 140.204 64.4545 139.42 64.4545Z"/>
<path d="M168.522 95.5455C166.067 95.5455 163.954 94.9659 162.181 93.8068C160.408 92.6477 159.045 91.0511 158.09 89.017C157.136 86.983 156.658 84.6591 156.658 82.0455C156.658 79.3864 157.147 77.0398 158.124 75.0057C159.113 72.9602 160.488 71.3636 162.249 70.2159C164.022 69.0568 166.09 68.4773 168.454 68.4773C170.295 68.4773 171.954 68.8182 173.431 69.5C174.908 70.1818 176.118 71.1364 177.062 72.3636C178.005 73.5909 178.59 75.0227 178.817 76.6591H174.795C174.488 75.4659 173.806 74.4091 172.749 73.4886C171.704 72.5568 170.295 72.0909 168.522 72.0909C166.954 72.0909 165.579 72.5 164.397 73.3182C163.226 74.125 162.312 75.267 161.653 76.7443C161.005 78.2102 160.681 79.9318 160.681 81.9091C160.681 83.9318 160.999 85.6932 161.636 87.1932C162.283 88.6932 163.192 89.858 164.363 90.6875C165.545 91.517 166.931 91.9318 168.522 91.9318C169.567 91.9318 170.516 91.75 171.368 91.3864C172.221 91.0227 172.942 90.5 173.533 89.8182C174.124 89.1364 174.545 88.3182 174.795 87.3636H178.817C178.59 88.9091 178.028 90.3011 177.13 91.5398C176.243 92.767 175.067 93.7443 173.601 94.4716C172.147 95.1875 170.454 95.5455 168.522 95.5455Z"/>
<path d="M212.363 74.6818L208.75 75.7045C208.523 75.1023 208.187 74.517 207.744 73.9489C207.312 73.3693 206.721 72.892 205.971 72.517C205.221 72.142 204.261 71.9545 203.091 71.9545C201.488 71.9545 200.153 72.3239 199.085 73.0625C198.028 73.7898 197.5 74.7159 197.5 75.8409C197.5 76.8409 197.863 77.6307 198.591 78.2102C199.318 78.7898 200.454 79.2727 202 79.6591L205.886 80.6136C208.227 81.1818 209.971 82.0511 211.119 83.2216C212.267 84.3807 212.841 85.875 212.841 87.7045C212.841 89.2045 212.409 90.5455 211.545 91.7273C210.693 92.9091 209.5 93.8409 207.966 94.5227C206.432 95.2045 204.648 95.5455 202.613 95.5455C199.943 95.5455 197.733 94.9659 195.983 93.8068C194.233 92.6477 193.125 90.9545 192.659 88.7273L196.477 87.7727C196.841 89.1818 197.528 90.2386 198.54 90.9432C199.562 91.6477 200.898 92 202.545 92C204.42 92 205.909 91.6023 207.011 90.8068C208.125 90 208.682 89.0341 208.682 87.9091C208.682 87 208.363 86.2386 207.727 85.625C207.091 85 206.113 84.5341 204.795 84.2273L200.432 83.2045C198.034 82.6364 196.273 81.7557 195.148 80.5625C194.034 79.358 193.477 77.8523 193.477 76.0455C193.477 74.5682 193.892 73.2614 194.721 72.125C195.562 70.9886 196.704 70.0966 198.148 69.4489C199.602 68.8011 201.25 68.4773 203.091 68.4773C205.682 68.4773 207.716 69.0455 209.193 70.1818C210.682 71.3182 211.738 72.8182 212.363 74.6818Z"/>
</mask>
<path d="M31 13H26.7727C26.5227 11.7841 26.0852 10.7159 25.4602 9.79545C24.8466 8.875 24.0966 8.10227 23.2102 7.47727C22.3352 6.84091 21.3636 6.36364 20.2955 6.04545C19.2273 5.72727 18.1136 5.56818 16.9545 5.56818C14.8409 5.56818 12.9261 6.10227 11.2102 7.17045C9.50568 8.23864 8.14773 9.8125 7.13636 11.892C6.13636 13.9716 5.63636 16.5227 5.63636 19.5455C5.63636 22.5682 6.13636 25.1193 7.13636 27.1989C8.14773 29.2784 9.50568 30.8523 11.2102 31.9205C12.9261 32.9886 14.8409 33.5227 16.9545 33.5227C18.1136 33.5227 19.2273 33.3636 20.2955 33.0455C21.3636 32.7273 22.3352 32.2557 23.2102 31.6307C24.0966 30.9943 24.8466 30.2159 25.4602 29.2955C26.0852 28.3636 26.5227 27.2955 26.7727 26.0909H31C30.6818 27.875 30.1023 29.4716 29.2614 30.8807C28.4205 32.2898 27.375 33.4886 26.125 34.4773C24.875 35.4545 23.4716 36.1989 21.9148 36.7102C20.3693 37.2216 18.7159 37.4773 16.9545 37.4773C13.9773 37.4773 11.3295 36.75 9.01136 35.2955C6.69318 33.8409 4.86932 31.7727 3.53977 29.0909C2.21023 26.4091 1.54545 23.2273 1.54545 19.5455C1.54545 15.8636 2.21023 12.6818 3.53977 10C4.86932 7.31818 6.69318 5.25 9.01136 3.79545C11.3295 2.34091 13.9773 1.61364 16.9545 1.61364C18.7159 1.61364 20.3693 1.86932 21.9148 2.38068C23.4716 2.89205 24.875 3.64205 26.125 4.63068C27.375 5.60795 28.4205 6.80114 29.2614 8.21023C30.1023 9.60795 30.6818 11.2045 31 13Z" fill="#0B1E35"/>
<path d="M57.0419 37.5455C54.6782 37.5455 52.6044 36.983 50.8203 35.858C49.0476 34.733 47.6612 33.1591 46.6612 31.1364C45.6726 29.1136 45.1782 26.75 45.1782 24.0455C45.1782 21.3182 45.6726 18.9375 46.6612 16.9034C47.6612 14.8693 49.0476 13.2898 50.8203 12.1648C52.6044 11.0398 54.6782 10.4773 57.0419 10.4773C59.4055 10.4773 61.4737 11.0398 63.2464 12.1648C65.0305 13.2898 66.4169 14.8693 67.4055 16.9034C68.4055 18.9375 68.9055 21.3182 68.9055 24.0455C68.9055 26.75 68.4055 29.1136 67.4055 31.1364C66.4169 33.1591 65.0305 34.733 63.2464 35.858C61.4737 36.983 59.4055 37.5455 57.0419 37.5455ZM57.0419 33.9318C58.8373 33.9318 60.3146 33.4716 61.4737 32.5511C62.6328 31.6307 63.4907 30.4205 64.0476 28.9205C64.6044 27.4205 64.8828 25.7955 64.8828 24.0455C64.8828 22.2955 64.6044 20.6648 64.0476 19.1534C63.4907 17.642 62.6328 16.4205 61.4737 15.4886C60.3146 14.5568 58.8373 14.0909 57.0419 14.0909C55.2464 14.0909 53.7691 14.5568 52.6101 15.4886C51.451 16.4205 50.593 17.642 50.0362 19.1534C49.4794 20.6648 49.201 22.2955 49.201 24.0455C49.201 25.7955 49.4794 27.4205 50.0362 28.9205C50.593 30.4205 51.451 31.6307 52.6101 32.5511C53.7691 33.4716 55.2464 33.9318 57.0419 33.9318Z" fill="#0B1E35"/>
<path d="M94.0525 37.5455C91.8707 37.5455 89.9445 36.9943 88.2741 35.892C86.6036 34.7784 85.2968 33.2102 84.3536 31.1875C83.4104 29.1534 82.9389 26.75 82.9389 23.9773C82.9389 21.2273 83.4104 18.8409 84.3536 16.8182C85.2968 14.7955 86.6093 13.233 88.2911 12.1307C89.9729 11.0284 91.9161 10.4773 94.1207 10.4773C95.8252 10.4773 97.1718 10.7614 98.1605 11.3295C99.1605 11.8864 99.9218 12.5227 100.445 13.2386C100.979 13.9432 101.393 14.5227 101.689 14.9773H102.03V2.09091H106.052V37H102.166V32.9773H101.689C101.393 33.4545 100.973 34.0568 100.427 34.7841C99.882 35.5 99.1036 36.142 98.0923 36.7102C97.0809 37.267 95.7343 37.5455 94.0525 37.5455ZM94.598 33.9318C96.2116 33.9318 97.5752 33.5114 98.6889 32.6705C99.8025 31.8182 100.649 30.642 101.229 29.142C101.808 27.6307 102.098 25.8864 102.098 23.9091C102.098 21.9545 101.814 20.2443 101.246 18.7784C100.677 17.3011 99.8366 16.1534 98.723 15.3352C97.6093 14.5057 96.2343 14.0909 94.598 14.0909C92.8934 14.0909 91.4729 14.5284 90.3366 15.4034C89.2116 16.267 88.365 17.4432 87.7968 18.9318C87.24 20.4091 86.9616 22.0682 86.9616 23.9091C86.9616 25.7727 87.2457 27.4659 87.8139 28.9886C88.3934 30.5 89.2457 31.7045 90.3707 32.6023C91.507 33.4886 92.9161 33.9318 94.598 33.9318Z" fill="#0B1E35"/>
<path d="M123.099 37V10.8182H127.121V37H123.099ZM125.144 6.45455C124.36 6.45455 123.684 6.1875 123.116 5.65341C122.559 5.11932 122.28 4.47727 122.28 3.72727C122.28 2.97727 122.559 2.33523 123.116 1.80114C123.684 1.26705 124.36 1 125.144 1C125.928 1 126.599 1.26705 127.155 1.80114C127.724 2.33523 128.008 2.97727 128.008 3.72727C128.008 4.47727 127.724 5.11932 127.155 5.65341C126.599 6.1875 125.928 6.45455 125.144 6.45455Z" fill="#0B1E35"/>
<path d="M147.632 21.25V37H143.609V10.8182H147.496V14.9091H147.837C148.45 13.5795 149.382 12.5114 150.632 11.7045C151.882 10.8864 153.496 10.4773 155.473 10.4773C157.246 10.4773 158.797 10.8409 160.126 11.5682C161.456 12.2841 162.49 13.375 163.229 14.8409C163.967 16.2955 164.337 18.1364 164.337 20.3636V37H160.314V20.6364C160.314 18.5795 159.78 16.9773 158.712 15.8295C157.643 14.6705 156.177 14.0909 154.314 14.0909C153.03 14.0909 151.882 14.3693 150.871 14.9261C149.871 15.483 149.081 16.2955 148.501 17.3636C147.922 18.4318 147.632 19.7273 147.632 21.25Z" fill="#0B1E35"/>
<path d="M191.376 47.3636C189.432 47.3636 187.762 47.1136 186.364 46.6136C184.966 46.125 183.802 45.4773 182.87 44.6705C181.949 43.875 181.216 43.0227 180.671 42.1136L183.876 39.8636C184.239 40.3409 184.699 40.8864 185.256 41.5C185.813 42.125 186.574 42.6648 187.54 43.1193C188.518 43.5852 189.796 43.8182 191.376 43.8182C193.489 43.8182 195.234 43.3068 196.609 42.2841C197.984 41.2614 198.671 39.6591 198.671 37.4773V32.1591H198.33C198.035 32.6364 197.614 33.2273 197.069 33.9318C196.535 34.625 195.762 35.2443 194.751 35.7898C193.751 36.3239 192.398 36.5909 190.694 36.5909C188.58 36.5909 186.682 36.0909 185.001 35.0909C183.33 34.0909 182.006 32.6364 181.029 30.7273C180.063 28.8182 179.58 26.5 179.58 23.7727C179.58 21.0909 180.052 18.7557 180.995 16.767C181.938 14.767 183.251 13.2216 184.932 12.1307C186.614 11.0284 188.557 10.4773 190.762 10.4773C192.466 10.4773 193.819 10.7614 194.819 11.3295C195.83 11.8864 196.603 12.5227 197.137 13.2386C197.682 13.9432 198.103 14.5227 198.398 14.9773H198.807V10.8182H202.694V37.75C202.694 40 202.182 41.8295 201.16 43.2386C200.148 44.6591 198.785 45.6989 197.069 46.358C195.364 47.0284 193.466 47.3636 191.376 47.3636ZM191.239 32.9773C192.853 32.9773 194.216 32.608 195.33 31.8693C196.444 31.1307 197.29 30.0682 197.87 28.6818C198.449 27.2955 198.739 25.6364 198.739 23.7045C198.739 21.8182 198.455 20.1534 197.887 18.7102C197.319 17.267 196.478 16.1364 195.364 15.3182C194.251 14.5 192.876 14.0909 191.239 14.0909C189.535 14.0909 188.114 14.5227 186.978 15.3864C185.853 16.25 185.006 17.4091 184.438 18.8636C183.881 20.3182 183.603 21.9318 183.603 23.7045C183.603 25.5227 183.887 27.1307 184.455 28.5284C185.035 29.9148 185.887 31.0057 187.012 31.8011C188.148 32.5852 189.557 32.9773 191.239 32.9773Z" fill="#0B1E35"/>
<path d="M1 63.8409V60.0909H27.1818V63.8409H16.2045V95H11.9773V63.8409H1Z" fill="#0B1E35"/>
<path d="M46.4226 95.6136C44.7635 95.6136 43.2578 95.3011 41.9055 94.6761C40.5532 94.0398 39.4794 93.125 38.6839 91.9318C37.8885 90.7273 37.4907 89.2727 37.4907 87.5682C37.4907 86.0682 37.7862 84.8523 38.3771 83.9205C38.968 82.9773 39.7578 82.2386 40.7464 81.7045C41.7351 81.1705 42.826 80.7727 44.0191 80.5114C45.2237 80.2386 46.4339 80.0227 47.6498 79.8636C49.2407 79.6591 50.5305 79.5057 51.5191 79.4034C52.5191 79.2898 53.2464 79.1023 53.701 78.8409C54.1669 78.5795 54.3998 78.125 54.3998 77.4773V77.3409C54.3998 75.6591 53.9396 74.3523 53.0191 73.4205C52.1101 72.4886 50.7294 72.0227 48.8771 72.0227C46.9566 72.0227 45.451 72.4432 44.3601 73.2841C43.2691 74.125 42.5021 75.0227 42.0589 75.9773L38.2407 74.6136C38.9226 73.0227 39.8316 71.7841 40.968 70.8977C42.1157 70 43.3657 69.375 44.718 69.0227C46.0816 68.6591 47.4226 68.4773 48.7407 68.4773C49.5816 68.4773 50.5476 68.5795 51.6385 68.7841C52.7407 68.9773 53.8032 69.3807 54.826 69.9943C55.8601 70.608 56.718 71.5341 57.3998 72.7727C58.0816 74.0114 58.4226 75.6705 58.4226 77.75V95H54.3998V91.4545H54.1953C53.9226 92.0227 53.468 92.6307 52.8316 93.2784C52.1953 93.9261 51.3487 94.4773 50.2919 94.9318C49.2351 95.3864 47.9453 95.6136 46.4226 95.6136ZM47.0362 92C48.6271 92 49.968 91.6875 51.0589 91.0625C52.1612 90.4375 52.9907 89.6307 53.5476 88.642C54.1157 87.6534 54.3998 86.6136 54.3998 85.5227V81.8409C54.2294 82.0455 53.8544 82.233 53.2748 82.4034C52.7066 82.5625 52.0476 82.7045 51.2976 82.8295C50.5589 82.9432 49.8373 83.0455 49.1328 83.1364C48.4396 83.2159 47.8771 83.2841 47.4453 83.3409C46.3998 83.4773 45.4226 83.6989 44.5135 84.0057C43.6157 84.3011 42.8885 84.75 42.3316 85.3523C41.7862 85.9432 41.5135 86.75 41.5135 87.7727C41.5135 89.1705 42.0305 90.2273 43.0646 90.9432C44.1101 91.6477 45.4339 92 47.0362 92Z" fill="#0B1E35"/>
<path d="M85.5212 95.5455C83.0667 95.5455 80.9531 94.9659 79.1803 93.8068C77.4076 92.6477 76.044 91.0511 75.0894 89.017C74.1349 86.983 73.6576 84.6591 73.6576 82.0455C73.6576 79.3864 74.1462 77.0398 75.1235 75.0057C76.1122 72.9602 77.4872 71.3636 79.2485 70.2159C81.0212 69.0568 83.0894 68.4773 85.4531 68.4773C87.294 68.4773 88.9531 68.8182 90.4303 69.5C91.9076 70.1818 93.1178 71.1364 94.061 72.3636C95.0042 73.5909 95.5894 75.0227 95.8167 76.6591H91.794C91.4872 75.4659 90.8053 74.4091 89.7485 73.4886C88.7031 72.5568 87.294 72.0909 85.5212 72.0909C83.9531 72.0909 82.5781 72.5 81.3962 73.3182C80.2258 74.125 79.311 75.267 78.6519 76.7443C78.0042 78.2102 77.6803 79.9318 77.6803 81.9091C77.6803 83.9318 77.9985 85.6932 78.6349 87.1932C79.2826 88.6932 80.1917 89.858 81.3622 90.6875C82.544 91.517 83.9303 91.9318 85.5212 91.9318C86.5667 91.9318 87.5156 91.75 88.3678 91.3864C89.2201 91.0227 89.9417 90.5 90.5326 89.8182C91.1235 89.1364 91.544 88.3182 91.794 87.3636H95.8167C95.5894 88.9091 95.0269 90.3011 94.1292 91.5398C93.2428 92.767 92.0667 93.7443 90.6008 94.4716C89.1462 95.1875 87.4531 95.5455 85.5212 95.5455Z" fill="#0B1E35"/>
<path d="M122.204 68.8182V72.2273H108.636V68.8182H122.204ZM112.59 62.5455H116.613V87.5C116.613 88.6364 116.778 89.4886 117.107 90.0568C117.448 90.6136 117.88 90.9886 118.403 91.1818C118.937 91.3636 119.499 91.4545 120.09 91.4545C120.533 91.4545 120.897 91.4318 121.181 91.3864C121.465 91.3295 121.692 91.2841 121.863 91.25L122.681 94.8636C122.408 94.9659 122.028 95.0682 121.539 95.1705C121.05 95.2841 120.431 95.3409 119.681 95.3409C118.545 95.3409 117.431 95.0966 116.34 94.608C115.261 94.1193 114.363 93.375 113.647 92.375C112.942 91.375 112.59 90.1136 112.59 88.5909V62.5455Z" fill="#0B1E35"/>
<path d="M137.375 95V68.8182H141.398V95H137.375ZM139.42 64.4545C138.636 64.4545 137.96 64.1875 137.392 63.6534C136.835 63.1193 136.557 62.4773 136.557 61.7273C136.557 60.9773 136.835 60.3352 137.392 59.8011C137.96 59.267 138.636 59 139.42 59C140.204 59 140.875 59.267 141.432 59.8011C142 60.3352 142.284 60.9773 142.284 61.7273C142.284 62.4773 142 63.1193 141.432 63.6534C140.875 64.1875 140.204 64.4545 139.42 64.4545Z" fill="#0B1E35"/>
<path d="M168.522 95.5455C166.067 95.5455 163.954 94.9659 162.181 93.8068C160.408 92.6477 159.045 91.0511 158.09 89.017C157.136 86.983 156.658 84.6591 156.658 82.0455C156.658 79.3864 157.147 77.0398 158.124 75.0057C159.113 72.9602 160.488 71.3636 162.249 70.2159C164.022 69.0568 166.09 68.4773 168.454 68.4773C170.295 68.4773 171.954 68.8182 173.431 69.5C174.908 70.1818 176.118 71.1364 177.062 72.3636C178.005 73.5909 178.59 75.0227 178.817 76.6591H174.795C174.488 75.4659 173.806 74.4091 172.749 73.4886C171.704 72.5568 170.295 72.0909 168.522 72.0909C166.954 72.0909 165.579 72.5 164.397 73.3182C163.226 74.125 162.312 75.267 161.653 76.7443C161.005 78.2102 160.681 79.9318 160.681 81.9091C160.681 83.9318 160.999 85.6932 161.636 87.1932C162.283 88.6932 163.192 89.858 164.363 90.6875C165.545 91.517 166.931 91.9318 168.522 91.9318C169.567 91.9318 170.516 91.75 171.368 91.3864C172.221 91.0227 172.942 90.5 173.533 89.8182C174.124 89.1364 174.545 88.3182 174.795 87.3636H178.817C178.59 88.9091 178.028 90.3011 177.13 91.5398C176.243 92.767 175.067 93.7443 173.601 94.4716C172.147 95.1875 170.454 95.5455 168.522 95.5455Z" fill="#0B1E35"/>
<path d="M212.363 74.6818L208.75 75.7045C208.523 75.1023 208.187 74.517 207.744 73.9489C207.312 73.3693 206.721 72.892 205.971 72.517C205.221 72.142 204.261 71.9545 203.091 71.9545C201.488 71.9545 200.153 72.3239 199.085 73.0625C198.028 73.7898 197.5 74.7159 197.5 75.8409C197.5 76.8409 197.863 77.6307 198.591 78.2102C199.318 78.7898 200.454 79.2727 202 79.6591L205.886 80.6136C208.227 81.1818 209.971 82.0511 211.119 83.2216C212.267 84.3807 212.841 85.875 212.841 87.7045C212.841 89.2045 212.409 90.5455 211.545 91.7273C210.693 92.9091 209.5 93.8409 207.966 94.5227C206.432 95.2045 204.648 95.5455 202.613 95.5455C199.943 95.5455 197.733 94.9659 195.983 93.8068C194.233 92.6477 193.125 90.9545 192.659 88.7273L196.477 87.7727C196.841 89.1818 197.528 90.2386 198.54 90.9432C199.562 91.6477 200.898 92 202.545 92C204.42 92 205.909 91.6023 207.011 90.8068C208.125 90 208.682 89.0341 208.682 87.9091C208.682 87 208.363 86.2386 207.727 85.625C207.091 85 206.113 84.5341 204.795 84.2273L200.432 83.2045C198.034 82.6364 196.273 81.7557 195.148 80.5625C194.034 79.358 193.477 77.8523 193.477 76.0455C193.477 74.5682 193.892 73.2614 194.721 72.125C195.562 70.9886 196.704 70.0966 198.148 69.4489C199.602 68.8011 201.25 68.4773 203.091 68.4773C205.682 68.4773 207.716 69.0455 209.193 70.1818C210.682 71.3182 211.738 72.8182 212.363 74.6818Z" fill="#0B1E35"/>
<path d="M31 13H26.7727C26.5227 11.7841 26.0852 10.7159 25.4602 9.79545C24.8466 8.875 24.0966 8.10227 23.2102 7.47727C22.3352 6.84091 21.3636 6.36364 20.2955 6.04545C19.2273 5.72727 18.1136 5.56818 16.9545 5.56818C14.8409 5.56818 12.9261 6.10227 11.2102 7.17045C9.50568 8.23864 8.14773 9.8125 7.13636 11.892C6.13636 13.9716 5.63636 16.5227 5.63636 19.5455C5.63636 22.5682 6.13636 25.1193 7.13636 27.1989C8.14773 29.2784 9.50568 30.8523 11.2102 31.9205C12.9261 32.9886 14.8409 33.5227 16.9545 33.5227C18.1136 33.5227 19.2273 33.3636 20.2955 33.0455C21.3636 32.7273 22.3352 32.2557 23.2102 31.6307C24.0966 30.9943 24.8466 30.2159 25.4602 29.2955C26.0852 28.3636 26.5227 27.2955 26.7727 26.0909H31C30.6818 27.875 30.1023 29.4716 29.2614 30.8807C28.4205 32.2898 27.375 33.4886 26.125 34.4773C24.875 35.4545 23.4716 36.1989 21.9148 36.7102C20.3693 37.2216 18.7159 37.4773 16.9545 37.4773C13.9773 37.4773 11.3295 36.75 9.01136 35.2955C6.69318 33.8409 4.86932 31.7727 3.53977 29.0909C2.21023 26.4091 1.54545 23.2273 1.54545 19.5455C1.54545 15.8636 2.21023 12.6818 3.53977 10C4.86932 7.31818 6.69318 5.25 9.01136 3.79545C11.3295 2.34091 13.9773 1.61364 16.9545 1.61364C18.7159 1.61364 20.3693 1.86932 21.9148 2.38068C23.4716 2.89205 24.875 3.64205 26.125 4.63068C27.375 5.60795 28.4205 6.80114 29.2614 8.21023C30.1023 9.60795 30.6818 11.2045 31 13Z" stroke="#0B1E35" stroke-width="2" mask="url(#path-1-outside-1_3_22)"/>
<path d="M57.0419 37.5455C54.6782 37.5455 52.6044 36.983 50.8203 35.858C49.0476 34.733 47.6612 33.1591 46.6612 31.1364C45.6726 29.1136 45.1782 26.75 45.1782 24.0455C45.1782 21.3182 45.6726 18.9375 46.6612 16.9034C47.6612 14.8693 49.0476 13.2898 50.8203 12.1648C52.6044 11.0398 54.6782 10.4773 57.0419 10.4773C59.4055 10.4773 61.4737 11.0398 63.2464 12.1648C65.0305 13.2898 66.4169 14.8693 67.4055 16.9034C68.4055 18.9375 68.9055 21.3182 68.9055 24.0455C68.9055 26.75 68.4055 29.1136 67.4055 31.1364C66.4169 33.1591 65.0305 34.733 63.2464 35.858C61.4737 36.983 59.4055 37.5455 57.0419 37.5455ZM57.0419 33.9318C58.8373 33.9318 60.3146 33.4716 61.4737 32.5511C62.6328 31.6307 63.4907 30.4205 64.0476 28.9205C64.6044 27.4205 64.8828 25.7955 64.8828 24.0455C64.8828 22.2955 64.6044 20.6648 64.0476 19.1534C63.4907 17.642 62.6328 16.4205 61.4737 15.4886C60.3146 14.5568 58.8373 14.0909 57.0419 14.0909C55.2464 14.0909 53.7691 14.5568 52.6101 15.4886C51.451 16.4205 50.593 17.642 50.0362 19.1534C49.4794 20.6648 49.201 22.2955 49.201 24.0455C49.201 25.7955 49.4794 27.4205 50.0362 28.9205C50.593 30.4205 51.451 31.6307 52.6101 32.5511C53.7691 33.4716 55.2464 33.9318 57.0419 33.9318Z" stroke="#0B1E35" stroke-width="2" mask="url(#path-1-outside-1_3_22)"/>
<path d="M94.0525 37.5455C91.8707 37.5455 89.9445 36.9943 88.2741 35.892C86.6036 34.7784 85.2968 33.2102 84.3536 31.1875C83.4104 29.1534 82.9389 26.75 82.9389 23.9773C82.9389 21.2273 83.4104 18.8409 84.3536 16.8182C85.2968 14.7955 86.6093 13.233 88.2911 12.1307C89.9729 11.0284 91.9161 10.4773 94.1207 10.4773C95.8252 10.4773 97.1718 10.7614 98.1605 11.3295C99.1605 11.8864 99.9218 12.5227 100.445 13.2386C100.979 13.9432 101.393 14.5227 101.689 14.9773H102.03V2.09091H106.052V37H102.166V32.9773H101.689C101.393 33.4545 100.973 34.0568 100.427 34.7841C99.882 35.5 99.1036 36.142 98.0923 36.7102C97.0809 37.267 95.7343 37.5455 94.0525 37.5455ZM94.598 33.9318C96.2116 33.9318 97.5752 33.5114 98.6889 32.6705C99.8025 31.8182 100.649 30.642 101.229 29.142C101.808 27.6307 102.098 25.8864 102.098 23.9091C102.098 21.9545 101.814 20.2443 101.246 18.7784C100.677 17.3011 99.8366 16.1534 98.723 15.3352C97.6093 14.5057 96.2343 14.0909 94.598 14.0909C92.8934 14.0909 91.4729 14.5284 90.3366 15.4034C89.2116 16.267 88.365 17.4432 87.7968 18.9318C87.24 20.4091 86.9616 22.0682 86.9616 23.9091C86.9616 25.7727 87.2457 27.4659 87.8139 28.9886C88.3934 30.5 89.2457 31.7045 90.3707 32.6023C91.507 33.4886 92.9161 33.9318 94.598 33.9318Z" stroke="#0B1E35" stroke-width="2" mask="url(#path-1-outside-1_3_22)"/>
<path d="M123.099 37V10.8182H127.121V37H123.099ZM125.144 6.45455C124.36 6.45455 123.684 6.1875 123.116 5.65341C122.559 5.11932 122.28 4.47727 122.28 3.72727C122.28 2.97727 122.559 2.33523 123.116 1.80114C123.684 1.26705 124.36 1 125.144 1C125.928 1 126.599 1.26705 127.155 1.80114C127.724 2.33523 128.008 2.97727 128.008 3.72727C128.008 4.47727 127.724 5.11932 127.155 5.65341C126.599 6.1875 125.928 6.45455 125.144 6.45455Z" stroke="#0B1E35" stroke-width="2" mask="url(#path-1-outside-1_3_22)"/>
<path d="M147.632 21.25V37H143.609V10.8182H147.496V14.9091H147.837C148.45 13.5795 149.382 12.5114 150.632 11.7045C151.882 10.8864 153.496 10.4773 155.473 10.4773C157.246 10.4773 158.797 10.8409 160.126 11.5682C161.456 12.2841 162.49 13.375 163.229 14.8409C163.967 16.2955 164.337 18.1364 164.337 20.3636V37H160.314V20.6364C160.314 18.5795 159.78 16.9773 158.712 15.8295C157.643 14.6705 156.177 14.0909 154.314 14.0909C153.03 14.0909 151.882 14.3693 150.871 14.9261C149.871 15.483 149.081 16.2955 148.501 17.3636C147.922 18.4318 147.632 19.7273 147.632 21.25Z" stroke="#0B1E35" stroke-width="2" mask="url(#path-1-outside-1_3_22)"/>
<path d="M191.376 47.3636C189.432 47.3636 187.762 47.1136 186.364 46.6136C184.966 46.125 183.802 45.4773 182.87 44.6705C181.949 43.875 181.216 43.0227 180.671 42.1136L183.876 39.8636C184.239 40.3409 184.699 40.8864 185.256 41.5C185.813 42.125 186.574 42.6648 187.54 43.1193C188.518 43.5852 189.796 43.8182 191.376 43.8182C193.489 43.8182 195.234 43.3068 196.609 42.2841C197.984 41.2614 198.671 39.6591 198.671 37.4773V32.1591H198.33C198.035 32.6364 197.614 33.2273 197.069 33.9318C196.535 34.625 195.762 35.2443 194.751 35.7898C193.751 36.3239 192.398 36.5909 190.694 36.5909C188.58 36.5909 186.682 36.0909 185.001 35.0909C183.33 34.0909 182.006 32.6364 181.029 30.7273C180.063 28.8182 179.58 26.5 179.58 23.7727C179.58 21.0909 180.052 18.7557 180.995 16.767C181.938 14.767 183.251 13.2216 184.932 12.1307C186.614 11.0284 188.557 10.4773 190.762 10.4773C192.466 10.4773 193.819 10.7614 194.819 11.3295C195.83 11.8864 196.603 12.5227 197.137 13.2386C197.682 13.9432 198.103 14.5227 198.398 14.9773H198.807V10.8182H202.694V37.75C202.694 40 202.182 41.8295 201.16 43.2386C200.148 44.6591 198.785 45.6989 197.069 46.358C195.364 47.0284 193.466 47.3636 191.376 47.3636ZM191.239 32.9773C192.853 32.9773 194.216 32.608 195.33 31.8693C196.444 31.1307 197.29 30.0682 197.87 28.6818C198.449 27.2955 198.739 25.6364 198.739 23.7045C198.739 21.8182 198.455 20.1534 197.887 18.7102C197.319 17.267 196.478 16.1364 195.364 15.3182C194.251 14.5 192.876 14.0909 191.239 14.0909C189.535 14.0909 188.114 14.5227 186.978 15.3864C185.853 16.25 185.006 17.4091 184.438 18.8636C183.881 20.3182 183.603 21.9318 183.603 23.7045C183.603 25.5227 183.887 27.1307 184.455 28.5284C185.035 29.9148 185.887 31.0057 187.012 31.8011C188.148 32.5852 189.557 32.9773 191.239 32.9773Z" stroke="#0B1E35" stroke-width="2" mask="url(#path-1-outside-1_3_22)"/>
<path d="M1 63.8409V60.0909H27.1818V63.8409H16.2045V95H11.9773V63.8409H1Z" stroke="#0B1E35" stroke-width="2" mask="url(#path-1-outside-1_3_22)"/>
<path d="M46.4226 95.6136C44.7635 95.6136 43.2578 95.3011 41.9055 94.6761C40.5532 94.0398 39.4794 93.125 38.6839 91.9318C37.8885 90.7273 37.4907 89.2727 37.4907 87.5682C37.4907 86.0682 37.7862 84.8523 38.3771 83.9205C38.968 82.9773 39.7578 82.2386 40.7464 81.7045C41.7351 81.1705 42.826 80.7727 44.0191 80.5114C45.2237 80.2386 46.4339 80.0227 47.6498 79.8636C49.2407 79.6591 50.5305 79.5057 51.5191 79.4034C52.5191 79.2898 53.2464 79.1023 53.701 78.8409C54.1669 78.5795 54.3998 78.125 54.3998 77.4773V77.3409C54.3998 75.6591 53.9396 74.3523 53.0191 73.4205C52.1101 72.4886 50.7294 72.0227 48.8771 72.0227C46.9566 72.0227 45.451 72.4432 44.3601 73.2841C43.2691 74.125 42.5021 75.0227 42.0589 75.9773L38.2407 74.6136C38.9226 73.0227 39.8316 71.7841 40.968 70.8977C42.1157 70 43.3657 69.375 44.718 69.0227C46.0816 68.6591 47.4226 68.4773 48.7407 68.4773C49.5816 68.4773 50.5476 68.5795 51.6385 68.7841C52.7407 68.9773 53.8032 69.3807 54.826 69.9943C55.8601 70.608 56.718 71.5341 57.3998 72.7727C58.0816 74.0114 58.4226 75.6705 58.4226 77.75V95H54.3998V91.4545H54.1953C53.9226 92.0227 53.468 92.6307 52.8316 93.2784C52.1953 93.9261 51.3487 94.4773 50.2919 94.9318C49.2351 95.3864 47.9453 95.6136 46.4226 95.6136ZM47.0362 92C48.6271 92 49.968 91.6875 51.0589 91.0625C52.1612 90.4375 52.9907 89.6307 53.5476 88.642C54.1157 87.6534 54.3998 86.6136 54.3998 85.5227V81.8409C54.2294 82.0455 53.8544 82.233 53.2748 82.4034C52.7066 82.5625 52.0476 82.7045 51.2976 82.8295C50.5589 82.9432 49.8373 83.0455 49.1328 83.1364C48.4396 83.2159 47.8771 83.2841 47.4453 83.3409C46.3998 83.4773 45.4226 83.6989 44.5135 84.0057C43.6157 84.3011 42.8885 84.75 42.3316 85.3523C41.7862 85.9432 41.5135 86.75 41.5135 87.7727C41.5135 89.1705 42.0305 90.2273 43.0646 90.9432C44.1101 91.6477 45.4339 92 47.0362 92Z" stroke="#0B1E35" stroke-width="2" mask="url(#path-1-outside-1_3_22)"/>
<path d="M85.5212 95.5455C83.0667 95.5455 80.9531 94.9659 79.1803 93.8068C77.4076 92.6477 76.044 91.0511 75.0894 89.017C74.1349 86.983 73.6576 84.6591 73.6576 82.0455C73.6576 79.3864 74.1462 77.0398 75.1235 75.0057C76.1122 72.9602 77.4872 71.3636 79.2485 70.2159C81.0212 69.0568 83.0894 68.4773 85.4531 68.4773C87.294 68.4773 88.9531 68.8182 90.4303 69.5C91.9076 70.1818 93.1178 71.1364 94.061 72.3636C95.0042 73.5909 95.5894 75.0227 95.8167 76.6591H91.794C91.4872 75.4659 90.8053 74.4091 89.7485 73.4886C88.7031 72.5568 87.294 72.0909 85.5212 72.0909C83.9531 72.0909 82.5781 72.5 81.3962 73.3182C80.2258 74.125 79.311 75.267 78.6519 76.7443C78.0042 78.2102 77.6803 79.9318 77.6803 81.9091C77.6803 83.9318 77.9985 85.6932 78.6349 87.1932C79.2826 88.6932 80.1917 89.858 81.3622 90.6875C82.544 91.517 83.9303 91.9318 85.5212 91.9318C86.5667 91.9318 87.5156 91.75 88.3678 91.3864C89.2201 91.0227 89.9417 90.5 90.5326 89.8182C91.1235 89.1364 91.544 88.3182 91.794 87.3636H95.8167C95.5894 88.9091 95.0269 90.3011 94.1292 91.5398C93.2428 92.767 92.0667 93.7443 90.6008 94.4716C89.1462 95.1875 87.4531 95.5455 85.5212 95.5455Z" stroke="#0B1E35" stroke-width="2" mask="url(#path-1-outside-1_3_22)"/>
<path d="M122.204 68.8182V72.2273H108.636V68.8182H122.204ZM112.59 62.5455H116.613V87.5C116.613 88.6364 116.778 89.4886 117.107 90.0568C117.448 90.6136 117.88 90.9886 118.403 91.1818C118.937 91.3636 119.499 91.4545 120.09 91.4545C120.533 91.4545 120.897 91.4318 121.181 91.3864C121.465 91.3295 121.692 91.2841 121.863 91.25L122.681 94.8636C122.408 94.9659 122.028 95.0682 121.539 95.1705C121.05 95.2841 120.431 95.3409 119.681 95.3409C118.545 95.3409 117.431 95.0966 116.34 94.608C115.261 94.1193 114.363 93.375 113.647 92.375C112.942 91.375 112.59 90.1136 112.59 88.5909V62.5455Z" stroke="#0B1E35" stroke-width="2" mask="url(#path-1-outside-1_3_22)"/>
<path d="M137.375 95V68.8182H141.398V95H137.375ZM139.42 64.4545C138.636 64.4545 137.96 64.1875 137.392 63.6534C136.835 63.1193 136.557 62.4773 136.557 61.7273C136.557 60.9773 136.835 60.3352 137.392 59.8011C137.96 59.267 138.636 59 139.42 59C140.204 59 140.875 59.267 141.432 59.8011C142 60.3352 142.284 60.9773 142.284 61.7273C142.284 62.4773 142 63.1193 141.432 63.6534C140.875 64.1875 140.204 64.4545 139.42 64.4545Z" stroke="#0B1E35" stroke-width="2" mask="url(#path-1-outside-1_3_22)"/>
<path d="M168.522 95.5455C166.067 95.5455 163.954 94.9659 162.181 93.8068C160.408 92.6477 159.045 91.0511 158.09 89.017C157.136 86.983 156.658 84.6591 156.658 82.0455C156.658 79.3864 157.147 77.0398 158.124 75.0057C159.113 72.9602 160.488 71.3636 162.249 70.2159C164.022 69.0568 166.09 68.4773 168.454 68.4773C170.295 68.4773 171.954 68.8182 173.431 69.5C174.908 70.1818 176.118 71.1364 177.062 72.3636C178.005 73.5909 178.59 75.0227 178.817 76.6591H174.795C174.488 75.4659 173.806 74.4091 172.749 73.4886C171.704 72.5568 170.295 72.0909 168.522 72.0909C166.954 72.0909 165.579 72.5 164.397 73.3182C163.226 74.125 162.312 75.267 161.653 76.7443C161.005 78.2102 160.681 79.9318 160.681 81.9091C160.681 83.9318 160.999 85.6932 161.636 87.1932C162.283 88.6932 163.192 89.858 164.363 90.6875C165.545 91.517 166.931 91.9318 168.522 91.9318C169.567 91.9318 170.516 91.75 171.368 91.3864C172.221 91.0227 172.942 90.5 173.533 89.8182C174.124 89.1364 174.545 88.3182 174.795 87.3636H178.817C178.59 88.9091 178.028 90.3011 177.13 91.5398C176.243 92.767 175.067 93.7443 173.601 94.4716C172.147 95.1875 170.454 95.5455 168.522 95.5455Z" stroke="#0B1E35" stroke-width="2" mask="url(#path-1-outside-1_3_22)"/>
<path d="M212.363 74.6818L208.75 75.7045C208.523 75.1023 208.187 74.517 207.744 73.9489C207.312 73.3693 206.721 72.892 205.971 72.517C205.221 72.142 204.261 71.9545 203.091 71.9545C201.488 71.9545 200.153 72.3239 199.085 73.0625C198.028 73.7898 197.5 74.7159 197.5 75.8409C197.5 76.8409 197.863 77.6307 198.591 78.2102C199.318 78.7898 200.454 79.2727 202 79.6591L205.886 80.6136C208.227 81.1818 209.971 82.0511 211.119 83.2216C212.267 84.3807 212.841 85.875 212.841 87.7045C212.841 89.2045 212.409 90.5455 211.545 91.7273C210.693 92.9091 209.5 93.8409 207.966 94.5227C206.432 95.2045 204.648 95.5455 202.613 95.5455C199.943 95.5455 197.733 94.9659 195.983 93.8068C194.233 92.6477 193.125 90.9545 192.659 88.7273L196.477 87.7727C196.841 89.1818 197.528 90.2386 198.54 90.9432C199.562 91.6477 200.898 92 202.545 92C204.42 92 205.909 91.6023 207.011 90.8068C208.125 90 208.682 89.0341 208.682 87.9091C208.682 87 208.363 86.2386 207.727 85.625C207.091 85 206.113 84.5341 204.795 84.2273L200.432 83.2045C198.034 82.6364 196.273 81.7557 195.148 80.5625C194.034 79.358 193.477 77.8523 193.477 76.0455C193.477 74.5682 193.892 73.2614 194.721 72.125C195.562 70.9886 196.704 70.0966 198.148 69.4489C199.602 68.8011 201.25 68.4773 203.091 68.4773C205.682 68.4773 207.716 69.0455 209.193 70.1818C210.682 71.3182 211.738 72.8182 212.363 74.6818Z" stroke="#0B1E35" stroke-width="2" mask="url(#path-1-outside-1_3_22)"/>
</svg>
